# xmcd
#
# Track frame offsets:
#	182
#	9750
#	19240
#	30705
#	43230
#	54597
#	71720
#	88182
#	99072
#	109042
#	121622
#	132045
#	144000
#	158577
#	168852
#	186077
#	197475
#	207045
#	218637
#	228910
#	241007
#	253992
#	269930
#
# Disc length: 3752 seconds
#
# Revision: 3
# Processed by: cddbd v1.5.2PL0 Copyright (c) Steve Scherf et al.
# Submitted via: EasyCDDAExtractor 15.2.5.1
#
DISCID=2c0ea617
DTITLE=Bobby Bare - The Mercury Years - Part 3
DYEAR=1987
DGENRE=Country
TTITLE0=A Fallen Star
TTITLE1=That's All Right
TTITLE2=Pamela Brown
TTITLE3=When I Want To Love A Lady
TTITLE4=Love Forever
TTITLE5=Darby's Castle
TTITLE6=A Lot Of Soul
TTITLE7=Just In Case (A Night Like This Never Comes Again)
TTITLE8=What Am I Gonna Do
TTITLE9=When Love Is Gone
TTITLE10=Lorena
TTITLE11=Don't Ask Me, Ask Marie
TTITLE12=Laying Here Lying In Bed
TTITLE13=Take Some And Give Some
TTITLE14=Sylvia's Mother
TTITLE15=Footprints In The Sand Of Time
TTITLE16=Lord, Let A Lie Come True
TTITLE17=Under It All
TTITLE18=Are You Sincere
TTITLE19=Even The Bad Times Are Good
TTITLE20=High And Dry
TTITLE21=She Gave Her Heart To Jethro
TTITLE22=Music City, U.S.A.
EXTD=Bobby Bare The Mercury Years: 1970-1972 ( Part 3)
EXTT0=
EXTT1=
EXTT2=
EXTT3=
EXTT4=
EXTT5=
EXTT6=
EXTT7=
EXTT8=
EXTT9=
EXTT10=
EXTT11=
EXTT12=
EXTT13=
EXTT14=
EXTT15=
EXTT16=
EXTT17=
EXTT18=
EXTT19=
EXTT20=
EXTT21=
EXTT22=
PLAYORDER=
